/* XPM */
static char *result[] = {
/* columns rows colors chars-per-pixel */
"64 64 4 1 ",
"  c black",
". c #B21717",
"X c white",
"o c None",
/* pixels */
"oooooooooooooooooooooooooooooooooooooooooooooooooooooooooooooooo",
"oooooooooooooooooooooooooooooooooooooooooooooooooooooooooooooooo",
"oooooooooooooooooooooooooooooooooooooooooooooooooooooooooooooooo",
"oooooooooooooooooooooooooooooooooooooooooooooooooooooooooooooooo",
"oooooooooooooooooooooooooooooooooooooooooooooooooooooooooooooooo",
"ooooooooooooooooooooooooooooooo   oooooooooooooooooooooooooooooo",
"ooooooooooooooooooooooooooooooo   oooooooooooooooooooooooooooooo",
"ooooooooooooooooooooooooooooooo   oooooooooooooooooooooooooooooo",
"oooooooooooooooooooooooooooo   ...   ooooooooooooooooooooooooooo",
"oooooooooooooooooooooooooooo   ...   ooooooooooooooooooooooooooo",
"oooooooooooooooooooooooooooo   ...   ooooooooooooooooooooooooooo",
"oooooooooooooooooooooooooooo   ...   ooooooooooooooooooooooooooo",
"oooooooooooooooooooooooooooo   ...   ooooooooooooooooooooooooooo",
"oooooooooooooooooooooooooooo   ...   ooooooooooooooooooooooooooo",
"ooooooooooooooooooooooooo   .........   oooooooooooooooooooooooo",
"ooooooooooooooooooooooooo   .........   oooooooooooooooooooooooo",
"ooooooooooooooooooooooooo   .........   oooooooooooooooooooooooo",
"ooooooooooooooooooooooooo   .........   oooooooooooooooooooooooo",
"ooooooooooooooooooooooooo   .........   oooooooooooooooooooooooo",
"ooooooooooooooooooooooooo   .........   oooooooooooooooooooooooo",
"oooooooooooooooooooooo   ...............   ooooooooooooooooooooo",
"oooooooooooooooooooooo   ...............   ooooooooooooooooooooo",
"oooooooooooooooooooooo   ...............   ooooooooooooooooooooo",
"ooooooooooooooooooo   .....................   oooooooooooooooooo",
"ooooooooooooooooooo   .....................   oooooooooooooooooo",
"ooooooooooooooooooo   .....................   oooooooooooooooooo",
"ooooooooooooooooooo   .....................   oooooooooooooooooo",
"ooooooooooooooooooo   .....................   oooooooooooooooooo",
"ooooooooooooooooooo   .....................   oooooooooooooooooo",
"oooooooooooooooo   ...........................   ooooooooooooooo",
"oooooooooooooooo   ...........................   ooooooooooooooo",
"oooooooooooooooo   ...........................   ooooooooooooooo",
"oooooooooooooooo   ...........................   ooooooooooooooo",
"oooooooooooooooo   ...........................   ooooooooooooooo",
"oooooooooooooooo   ...........................   ooooooooooooooo",
"oooooooooooooooo   ...........................   ooooooooooooooo",
"oooooooooooooooo   ...........................   ooooooooooooooo",
"oooooooooooooooo   ...........................   ooooooooooooooo",
"ooooooooooooo   .................................   oooooooooooo",
"ooooooooooooo   .................................   oooooooooooo",
"ooooooooooooo   .................................   oooooooooooo",
"ooooooooooooo   ...XXX...........................   oooooooooooo",
"ooooooooooooo   ...XXX...........................   oooooooooooo",
"ooooooooooooo   ...XXX...........................   oooooooooooo",
"ooooooooooooo   ...XXX...........................   oooooooooooo",
"ooooooooooooo   ...XXX...........................   oooooooooooo",
"ooooooooooooo   ...XXX...........................   oooooooooooo",
"ooooooooooooo   ......XXX........................   oooooooooooo",
"ooooooooooooo   ......XXX........................   oooooooooooo",
"ooooooooooooo   ......XXX........................   oooooooooooo",
"oooooooooooooooo   ......XXXXXX...............   ooooooooooooooo",
"oooooooooooooooo   ......XXXXXX...............   ooooooooooooooo",
"oooooooooooooooo   ......XXXXXX...............   ooooooooooooooo",
"ooooooooooooooooooo   .....................   oooooooooooooooooo",
"ooooooooooooooooooo   .....................   oooooooooooooooooo",
"ooooooooooooooooooo   .....................   oooooooooooooooooo",
"oooooooooooooooooooooo                     ooooooooooooooooooooo",
"oooooooooooooooooooooo                     ooooooooooooooooooooo",
"oooooooooooooooooooooo                     ooooooooooooooooooooo",
"oooooooooooooooooooooooooooooooooooooooooooooooooooooooooooooooo",
"oooooooooooooooooooooooooooooooooooooooooooooooooooooooooooooooo",
"oooooooooooooooooooooooooooooooooooooooooooooooooooooooooooooooo",
"oooooooooooooooooooooooooooooooooooooooooooooooooooooooooooooooo",
"oooooooooooooooooooooooooooooooooooooooooooooooooooooooooooooooo"
};
