/* XPM */
static char *result[] = {
/* columns rows colors chars-per-pixel */
"58 64 167 2 ",
"   c #010101",
".  c #090204",
"X  c #020A05",
"o  c #07050E",
"O  c gray3",
"+  c #1D0801",
"@  c #0F1518",
"#  c #0D1313",
"$  c #111419",
"%  c #1A1A1A",
"&  c #161416",
"*  c #260E0C",
"=  c #3C1B05",
"-  c #391908",
";  c #391705",
":  c #282828",
">  c gray19",
",  c #4C1B08",
"<  c #5D2303",
"1  c #672301",
"2  c #6C2602",
"3  c #6E2902",
"4  c #662D06",
"5  c #722601",
"6  c #722901",
"7  c #772E0A",
"8  c #7C2F0A",
"9  c #73250E",
"0  c #7B310A",
"q  c #723D20",
"w  c #36433B",
"e  c #70432D",
"r  c #3B3F42",
"t  c #324342",
"y  c #3C4345",
"u  c #3E555A",
"i  c #3B5557",
"p  c #396265",
"a  c #30737F",
"s  c #404440",
"d  c #444E4F",
"f  c #4A514F",
"g  c #465153",
"h  c #5F5F5F",
"j  c #615F5E",
"k  c #65605C",
"l  c #606060",
"z  c #6E6660",
"x  c #6F6F6F",
"c  c #72726C",
"v  c #7B7B7B",
"b  c #863A12",
"n  c #8B3C12",
"m  c #8E3E1E",
"M  c #8E411D",
"N  c #944012",
"B  c #9D481D",
"V  c #9B4F2A",
"C  c #9C502E",
"Z  c #894D35",
"A  c #A4552F",
"S  c #A9542D",
"D  c #BE5E29",
"F  c #A65631",
"G  c #A85731",
"H  c #A15933",
"J  c #B45B33",
"K  c #B95C32",
"L  c #BF622A",
"P  c #B4633E",
"I  c #BE6A3F",
"U  c #BB673E",
"Y  c #C15F29",
"T  c #C16028",
"R  c #CF6A37",
"E  c #C6683F",
"W  c #CF6A3B",
"Q  c #D66934",
"!  c #D96C35",
"~  c #DF7135",
"^  c #9B644D",
"/  c #AB6549",
"(  c #B26344",
")  c #BB6744",
"_  c #B76946",
"`  c #BB6846",
"'  c #BC6649",
"]  c #B76A48",
"[  c #BB6A49",
"{  c #B0624C",
"}  c #B96B53",
"|  c #A3755E",
" . c #B47C5E",
".. c #9F7662",
"X. c #A37662",
"o. c #B77A60",
"O. c #B97963",
"+. c #C36B45",
"@. c #CC6E46",
"#. c #C46E49",
"$. c #CA6E49",
"%. c #C06643",
"&. c #D46F44",
"*. c #CB7148",
"=. c #CE7043",
"-. c #D37046",
";. c #D37249",
":. c #DA7647",
">. c #CE7753",
",. c #FD7D40",
"<. c #C07664",
"1. c #FD8545",
"2. c #FE8947",
"3. c #FE8549",
"4. c #F7894D",
"5. c #FE8A48",
"6. c #2E8986",
"7. c #318082",
"8. c #708C9C",
"9. c #669195",
"0. c #6D9296",
"q. c #64969A",
"w. c #6D959E",
"e. c #6C999E",
"r. c #699996",
"t. c #71939C",
"y. c #6C95A1",
"u. c #6B99A1",
"i. c #6B9FA9",
"p. c #7390A7",
"a. c #749CA3",
"s. c #68A4AE",
"d. c #74A1A8",
"f. c #68A7B4",
"g. c #64AAB2",
"h. c #6AACB4",
"j. c #66ABB8",
"k. c #3AC5BF",
"l. c #3AC7C0",
"z. c #3BC8C1",
"x. c #5DC2CD",
"c. c #48D9DD",
"v. c #5BDADD",
"b. c #57D9DB",
"n. c #61C3C9",
"m. c #60CACD",
"M. c #57DFE3",
"N. c #4BE4E3",
"B. c #46E9E7",
"V. c #54E5E4",
"C. c #50E7E9",
"Z. c #4DF0ED",
"A. c #4CFCF7",
"S. c #46FEFD",
"D. c #4CFDFC",
"F. c #4FF5F2",
"G. c #50F5F6",
"H. c #52F7F9",
"J. c #51FBFD",
"K. c #BE9E8B",
"L. c #A4A5A5",
"P. c #AAA3A5",
"I. c #A8A5A8",
"U. c #A6A8A9",
"Y. c #C49A89",
"T. c #C19991",
"R. c None",
/* pixels */
"R.R.R.R.R.R.R.R.R.R.R.R.R.R.R.R.R.R.R.R.R.R.R.R.R.R.R.R.R.R.R.R.R.R.R.R.R.R.R.R.R.R.R.R.R.R.R.R.R.R.R.R.R.R.R.R.R.R.",
"R.R.R.R.R.R.R.R.R.R.R.R.R.R.R.R.R.R.R.R.R.R.R.R.%                   R.R.R.R.R.R.R.R.R.R.R.R.R.R.R.R.R.R.R.R.R.R.R.R.",
"R.R.R.R.R.R.R.R.R.R.R.R.R.R.R.R.R.R.R.R.R.      N.J.D.D.J.D.D.D.D.D.        R.R.R.R.R.R.R.R.R.R.R.R.R.R.R.R.R.R.R.R.",
"R.R.R.R.R.R.R.R.R.R.R.R.R.R.R.R.R.R.    X D.D.D.J.S.t.t.t.t.t.t.t.J.D.D.D.D.      R.R.R.R.R.R.R.R.R.R.R.R.R.R.R.R.R.",
"R.R.R.R.R.R.R.R.R.R.R.R.R.R.R.R.    A.D.S.p.w.w.a.9.D.y.w.w.w.y.D.t.w.w.y.w.D.D.D.    R.R.R.R.R.R.R.R.R.R.R.R.R.R.R.",
"R.R.R.R.R.R.R.R.R.R.R.R.R.    X D.D.D.i.0.w.w.w.y.0.A.y.w.w.w.w.J.y.w.w.y.w.w.D.D.D.D.    % R.R.R.R.R.R.R.R.R.R.R.R.",
"R.R.R.R.R.R.R.R.R.R.R.R.  D.D.D.w.w.w.F.D.w.w.w.w.0.              p.w.w.w.w.D.w.w.w.y.D.D.N.  R.R.R.R.R.R.R.R.R.R.R.",
"R.R.R.R.R.R.R.R.R.R.R.  D.D.i.w.y.w.w.w.0.J.        6 6 6 6 6 3 6         S.w.w.w.w.w.w.J.D.D.  R.R.R.R.R.R.R.R.R.R.",
"R.R.R.R.R.R.R.R.R.:   D.w.w.Z.D.w.w.w.$     5 5 5 5 6 6 6 6 6 6 6 5 5 6 5 .   0.y.w.u.J.8.w.9.A.  R.R.R.R.R.R.R.R.R.",
"R.R.R.R.R.R.R.R.  c.S.y.y.w.t.q.D.    4 5 5 6 5 6 5 3.` ` ) ` ` _ 6 6 6 6 6 5 X     J.y.w.w.w.t.A.  O R.R.R.R.R.R.R.",
"R.R.R.R.R.R.R.  D.i.y.w.w.w.y.t.  6 6 6 5 6 ` &.8 2 3.` ` ` ` ` _ 6 2.3.&.6 6 6 6 6   w.y.w.w.y.w.D.A.  R.R.R.R.R.R.",
"R.R.R.R.R.R.R.  D.D.D.y.w.y.$   6 6 6 ( ' ) ` &.0 2 3.` ` ) ` ` ` 3 2.3.&.-.` 6 6 6 6   w.w.w.t.D.D.D.  R.R.R.R.R.R.",
"R.R.R.R.R.R.  S.a.w.0.S.w.  2 3 6 3.&.+._ ) ) &.8 2 3.` _ ) ` ' ` 6 5.1._ -.` &.@.&.6 6   # t.J.p.w.p.J.  R.R.R.R.R.",
"R.R.R.R.R.R.  D.t.w.w.w.  3 5 6 6 1.&.` ) ) &.&.8 2 3.` _ ' ` ` ` 6 5.1.) -.&.W &.&.6 6 6 1   a.e.w.y.A.  R.R.R.R.R.",
"R.R.R.R.>   S.w.p.w.w.w.  3 P ) 6 3.&.&.&.` -.' 7 2 3.` ` ;.&.` ` 7 2.1.` ` -.-.&.-.6 1.6 2   y.w.y.0.y.J.  R.R.R.R.",
"R.R.R.R.>   D.w.w.w.a.  5 6 P ` 6 1.) ;.&.` -.[ 0 2 3.` &.&.-.` ` 5 2.1.` ` -.-.-.) 6 1.5 6 2   w.t.y.u.D.  R.R.R.R.",
"R.R.R.  z.G.y.D.S.f.e.  5 ) ) ` 6 1.%.;.&.` &.` 7 2 3.` ;.-.&.` ` 6 5.1.` ` &.-.-.` 5 3.) ( 5   w.S.S.J.r.D.  % R.R.",
"R.R.R.  z.D.y.q.0.&   6 6 ) _ +.6 1.) ;.&.&.;.` 7 2 3.` &.&.&.) ` 6 5.1.` ) ` -.&.) 5 1.) ( 6 3   d.w.t.e.D.O % R.R.",
"R.R.R.  l.D.w.w.w.@   6 ) ` ` ` 5 1.` ) %.-.) _ 7 2 3.` &.:.&.) ` 6 2.1.` ) ` &.@.) 6 1.) ` ) 6   a.w.w.w.D.  % R.R.",
"R.R.R.  z.D.w.w.w.@   6 ` ) ` ` 5 2.` ` ` &.` ` 7 2 3._ &.&.-.' [ 6 2.1.` ` ` &.-.-.6 1.+.) ` 6   d.w.w.w.D.  % R.R.",
"R.R.  D.f.q.y.w.  3 4 5 ` ` ` ` 6 1.) ` ) &.` ` 7 2 3.) -.+.%.W ` 6 5.1.` ` ` &.&.&.6 1.` ` ` 6 5   o w.w.w.S.C.  R.",
"R.R.  A.S.D.D.D.  2 3 1.#.` ` ` 6 1.) ` _ _ ` ) 7 2 3.&.-.` ) &.` 6 5.1.` ` ' &.-.&.6 1.` ` ` ) 6     D.D.D.D.B.  R.",
"R.R.  A.j.0.0.t.  2 2 1.) ` ` ` 6 1.' ` ) ' ` ` 7 2 1.&._ ) ) &.` 6 5.1.` ` ` &.&.&.6 1.+.) _ ) 6     0.w.0.H.B.  R.",
"R.R.  A.g.w.y.w.  1 3 3.` ` _ ) 6 3.) ` ` #.` ` 7 5 1.-._ ` ) &.` 6 2.2.` ` ` ` ` ` 6 1.` ` ` _ 6     a.w.w.D.B.  R.",
"R.R.  A.g.w.w.w.7 5 6 2 5 3 5 3 6 3 6 5 3 5 3 3 5 3 3 5 3 5 3 3 3 6 6 5 3 3 5 3 6 5 6 2 3 6 3 5 6 6 3 e.e.p.D.B.  R.",
"R.R.  A.g.w.w.9 3.3.3.3.1.3.3.3.3.3.3.3.3.3.1.1.3.3.1.1.3.3.3.3.3.2.3.1.3.3.3.3.1.3.3.3.3.3.3.1.1.2.,.3 0.u.D.B.  R.",
"R.R.  A.J.D.S.3 1.E _ ) ) L.} ) ) ) ) ) ) L.) ) ) ) ) ) ) P.I.) ) ) ) ) ) ) L.) ) ) ) ) ( [ L.) ) ) P 6 D.D.D.B.  R.",
"R.R.  A.j.w.t.7 3.#._ ) ) U ) ) ` _ ) _ I ' ) ) _ _ ' ) ' ' ' ) _ _ ` ` ` _ ) %._ ) ) ) ) ` I ` ` _ ] 6 w.w.D.B.  R.",
"R.R.  S.g.t.w.w.2 5 3 3 3 2 3 3 5 3 3 5 2 5 5 3 5 3 5 3 5 3 3 3 5 3 3 3 5 3 3 5 5 3 5 3 5 3 5 5 5 5 6 w.w.p.A.B.  R.",
"R.R.  A.g.w.w.w.  < 6 6 5 5 6 6 6 5 6 6 6 5 6 6 6 5 6 5 5 5 6 6 5 5 5 6 6 6 5 5 6 6 6 6 5 6 6 6 6   . w.y.t.D.B.  R.",
"R.R.  D.g.w.w.y.  2 1 3.%._ ) #.6 3.&.%.) ) ) ) 8 5 1.&.) ) ) ) &.6 4.3.) ) ) ) ) ` 6 3.) I &._ 6     y.y.y.D.B.  R.",
"R.R.  A.H.D.D.D.  2 2 1._ ` ` ` 6 1.&.&.@._ ` ) 7 2 1.&.) ) _ ` -.5 2.1.` _ ) _ ` ` 6 1.) ` -.` 5   o J.D.D.J.B.  R.",
"R.R.  D.s.0.w.0.  1 2 1._ _ ` ` 6 1.' ;.&.) ` ` 7 2 1.&.-.+.` ` &.5 5.2.) ` ` ) ` ` 6 1.&.&.&.-.6     0.0.w.D.B.  R.",
"R.R.  S.g.w.w.w.  3 1 3.` t / _ 6 1.) -.-.` ` ) 7 2 3.) -._ ) -.-.5 1.2.) ` ` ` ` ` 6 1.-.-.) -.6   X p.y.t.D.B.  R.",
"R.R.  A.g.y.w.w.  2 2 3.t U.d y 6 1.) ;.&.:.` ` 7 2 2.` &.` ) &.) 6 2.1.` ) -.) ) ` 5 1.-.&._ -.6     y.t.u.D.B.  R.",
"R.R.  A.g.w.w.w.  2 3 1.y P.d y 6 1.) %.) &.` ` 7 2 3.` &.-.&.&.` 6 2.1.` ) -.) ` ` 6 1.-.&.` -.6     w.y.y.D.B.  R.",
"R.R.  A.D.D.D.J.  2 2 2.] y / ` 6 1.` ` ) &.-.` 7 2 3.` ` ;.&.&._ 6 2.1.) ` -.) ` ) 6 1.-.-.` -.6   X J.J.A.D.B.  R.",
"R.R.  A.g.e.e.e.  2 2 1.` y / ` 5 3.) ` ) ` -.` 7 2 3.` ) -.&.&.` 6 2.1.` ` W _ ` ` 6 1.-.-.-.-.6   . e.w.w.D.B.  R.",
"R.R.  A.g.w.w.w.  1 2 1.` y ( ` 6 1.%.` _ ) ;.` 7 2 3.` ` ;.&.&.` 6 5.2.` _ -.) ` ` 5 1.-.-.-.) 6     e.w.e.D.B.  R.",
"R.R.  A.g.w.w.w.X 2 2 1.` y { ` 5 1.) ` _ ' -.[ 7 2 2.[ ' &.&.&._ 6 2.1.` ) &.) ` _ 6 1.E +.W ) 6 .   p.w.y.J.B.  R.",
"R.R.  A.g.y.w.w.  2 2 1._ y ( ` 5 2.` ` ` ` &.;.8 2 3.` ` ;.&.&.` 6 2.1.` ` &._ ) ` 6 3.` %.-.) 6   O y.w.y.D.B.  R.",
"R.R.  A.A.D.D.D.  2 2 3._ y ( ` 6 1.) ' ) ` ) &.8 2 3.[ ' ;.&.&.` 6 5.1.` ;.&.&.@.` 5 1.` %.-.-.6   X S.D.S.D.B.  R.",
"R.R.  D.j.0.e.e.. 2 1 3.w P.f w 6 1.` ` _ ) ) &.8 2 2.` _ -.-.&._ 6 5.1._ &.-.&.-.` 6 1.` ` -.-.6   . 0.e.0.S.B.  R.",
"R.R.  S.j.w.w.w.  1 3 3.y L.d y 6 1.+.` ` ) ) &.0 2 3.` ` -.&.&.` 6 2.2.' &.&.&.@.) 5 1.) +.&.` 6     w.w.e.D.B.  R.",
"R.R.  A.g.w.w.w.  2 2 1./ g ^ { 6 1.) ` ` ` ` &.0 2 3.` _ +.` #.` 6 2.1._ -.#.&.-.) 6 1.) %.-._ 6 .   t.w.p.A.B.  R.",
"R.R.  A.g.e.w.y.X 2 2 3.` ( _ ` 6 3.%.` ) ` ) &.8 2 3.` ` ' ) ` ` 6 2.3.-.-.` &.-._ 5 1.` ` ` ) 6     y.w.e.D.B.  R.",
"R.R.  A.H.J.H.J.  2 3 1.[ ` ` ` 6 3.%.` ) ) ) &.8 2 3.` ` ) ` ) ` 6 5.3.&.` _ &.=._ 6 1.` ` ` ) 6   X H.G.G.S.B.  R.",
"R.R.  S.j.u.u.u.  2 2 1.] ` ` ` 6 1.) ` ` ) ) &.0 2 3.` ` ` ` _ ` 6 5.3.&._ ` &.&.&.6 3.` ` ` ) 6     p.p.w.D.B.  R.",
"R.R.  A.g.w.w.w.  2 2 1._ _ ` ` 6 1.) ` ` ` *.#.7 2 3._ ) ` ` ' ` 6 2.3.&.@.) #.+.&.6 1.` ` _ _ 6   X y.0.u.D.B.  R.",
"R.R.  A.g.w.w.w.< 6 5 N b b b b 6 N b b b b n b 6 5 n b b b b b b 6 N N n n b n b n 6 N b b b b 6 1 < w.e.p.D.B.  R.",
"R.R.  S.f.y.w.e ~ ~ ~ ~ ~ ~ ~ ~ ~ ~ ~ ~ ~ ~ ~ ~ ~ ~ ~ ~ ~ ~ ~ ~ ~ ~ ~ ~ ~ ~ ~ ~ ~ ~ ~ ~ ~ ~ ~ ~ ~ ~ ! q w.w.J.B.  R.",
"R.R.  A.V.M.V.6 3.:.;.;.;.Y.>.;.;.;.;.;.;.K.;.;.;.;.;.:.;.Y.Y.;.;.;.;.;.;.*.T.;.:.-.;.;.;.>.Y.;.;.;.:.5 v.v.D.B.  R.",
"R.R.  A.x.h.h.6 3.#.` _ _ o.) ` ` ` ` ) ) O.` ` %.` _ ) `  .o.) ` ` ` ` _ _ <.` ) ` ` ' ` %. .` ` ` _ 3 h.h.D.B.  R.",
"R.R.  D.g.y.y.c B m M M M M M M M M M M M M M M m V M M M M M M M M M M M M M M M M M M M M M M M M Z c w.w.D.B.  R.",
"R.R.  A.g.w.w.w.+ 1 6 6 6 6 6 6 6 6 6 6 6 6 6 6 3 6 6 5 6 6 6 6 6 6 6 6 6 6 6 6 6 6 6 6 6 6 6 6 6 + * w.w.w.D.B.  R.",
"R.R.  A.g.w.w.w.  3 6 Q K J F A 6 Q H F A K F F 7 5 Q F G J J F G 6 W W A J F J J A 6 Q G F F G 6   O y.w.w.D.B.  R.",
"R.R.  A.V.v.v.M.  2 2 1.$.-.` _ 6 1.) ) ) &.` ) 7 2 3.` $.-.&.@.` 6 5.1.) -.` -.-.) 6 1.) _ ` ) 6   o b.v.v.D.B.  R.",
"R.R.  A.b.m.m.m.  2 2 1._ &.%.` 6 1.+.) ' &.` ` 7 2 3.` -.+.+.&.` 6 5.1.` #.=.-.-.` 6 1.` ` ` ) 6   . x.n.x.D.B.  R.",
"R.R.  S.g.w.w.w.  1 2 1._ &.*.@.6 1.) #.$.*._ ) 7 2 1.` -.` ) &.[ 6 5.1.) ` -.$.$._ 5 1.) ` ` ) 6   o w.w.w.J.B.  R.",
"R.R.  A.g.w.w.w.X 2 2 1._ @.-.-.5 3.) @.&._ ` ` 7 2 1.@.-.) ) &.@.6 5.2.` _ *.` ) ` 5 1.` ` ` ` 6   X w.w.w.D.B.  R.",
"R.R.  A.g.w.w.w.  1 2 3._ _ +.@.6 1.+.$.*.` _ ` 7 2 3.&.$.` ) $.&.5 2.1.` ` ` ` ` ` 6 3.` ` _ ) 6   X w.w.w.D.B.  R.",
"R.R.v 6.p u u u   ; ; L C C V V - T S A V V V V , - Y S V V V V S - L D V V V V V V = Y V V V V ,     u u i a 7.v R.",
"R.R.R.l l l l l l l k | | | | | j | | | | | | | z k | | | | | | | j X.X.| | | | | X.l | | | | | l j l l l l l x R.R.",
"R.R.R.R.R.R.R.R.R.R.R.R.R.R.R.R.R.R.R.R.R.R.R.R.R.R.R.R.R.R.R.R.R.R.R.R.R.R.R.R.R.R.R.R.R.R.R.R.R.R.R.R.R.R.R.R.R.R."
};
