/* XPM */
static char *result[] = {
/* columns rows colors chars-per-pixel */
"58 64 155 2 ",
"   c #010101",
".  c #0E0503",
"X  c #02050C",
"o  c #010A09",
"O  c #0E0E0E",
"+  c #010A02",
"@  c #110602",
"#  c #111415",
"$  c #141819",
"%  c #191919",
"&  c #3A1500",
"*  c #21241E",
"=  c #072422",
"-  c #122020",
";  c #1C2824",
":  c gray13",
">  c #2B2E2E",
",  c #262F31",
"<  c #292E31",
"1  c #2A3034",
"2  c #343C3E",
"3  c gray22",
"4  c #661C00",
"5  c #512C17",
"6  c #512C18",
"7  c #6E2601",
"8  c #6F2900",
"9  c #722701",
"0  c #722901",
"q  c #7B2E08",
"w  c #782E05",
"e  c #73300D",
"r  c #7F3510",
"t  c #773512",
"y  c #353F40",
"u  c #1E5256",
"i  c #364342",
"p  c #3A4445",
"a  c #344449",
"s  c #39504E",
"d  c #5F4D46",
"f  c #6C594B",
"g  c #4D6C6F",
"h  c #4F6B72",
"j  c #737272",
"k  c #88380F",
"l  c #86350C",
"z  c #823712",
"x  c #863A14",
"c  c #8C3C14",
"v  c #8B3E1A",
"b  c #8B4B1D",
"n  c #97471D",
"m  c #A24B19",
"M  c #894624",
"N  c #9D4C21",
"B  c #A75A32",
"V  c #AC5B37",
"C  c #B85E32",
"Z  c #AC6138",
"A  c #BD6439",
"S  c #C4622D",
"D  c #EB7537",
"F  c #935B46",
"G  c #8C7D5C",
"H  c #B76745",
"J  c #BA6744",
"K  c #B56A45",
"L  c #BA6846",
"P  c #B7684A",
"I  c #BC6C48",
"U  c #B8644A",
"Y  c #B47A5C",
"T  c #897A60",
"R  c #C16A45",
"E  c #C86D45",
"W  c #C3674C",
"Q  c #C26B4B",
"!  c #D46E45",
"~  c #C17147",
"^  c #C7704E",
"/  c #CC7347",
"(  c #D37044",
")  c #D97243",
"_  c #D17148",
"`  c #E07740",
"'  c #FD7F43",
"]  c #AD8969",
"[  c #B0886A",
"{  c #D5915A",
"}  c #D8945B",
"|  c #EA844D",
" . c #F78546",
".. c #FE8446",
"X. c #F98841",
"o. c #FD8549",
"O. c #F88A51",
"+. c #E6975B",
"@. c #E5985B",
"#. c #FEAC63",
"$. c #FFCC7B",
"%. c #FBCD76",
"&. c #F6D07E",
"*. c #27908E",
"=. c #6C8789",
"-. c #6C898B",
";. c #6E8F93",
":. c #6D8F9B",
">. c #708D9A",
",. c #699293",
"<. c #6D959D",
"1. c #67999F",
"2. c #6A999D",
"3. c #71929C",
"4. c #6796A0",
"5. c #6B97A0",
"6. c #6D9BA2",
"7. c #7094A1",
"8. c #7199A2",
"9. c #59BABE",
"0. c #64AAB1",
"q. c #62B6BE",
"w. c #5EBDC4",
"e. c #60BBC3",
"r. c #41DADC",
"t. c #53DFD6",
"y. c #55DEDF",
"u. c #5ADCDF",
"i. c #48E8E1",
"p. c #4AEEED",
"a. c #47EDEC",
"s. c #53E6E6",
"d. c #5FE6E7",
"f. c #56E7E8",
"g. c #52ECEB",
"h. c #51EEF0",
"j. c #47FEF7",
"k. c #45FFFD",
"l. c #4DFDFD",
"z. c #4BFBF6",
"x. c #53F3F5",
"c. c #51FDFF",
"v. c #54F6F9",
"b. c #AA9C99",
"n. c #9FA9A3",
"m. c #9EA8AD",
"M. c #A5A5A5",
"N. c #A9A5A3",
"B. c #A6A8A5",
"V. c #A6A6A9",
"C. c #AAA2A8",
"Z. c #CBAEA0",
"A. c #FFCE81",
"S. c gray82",
"D. c None",
/* pixels */
"D.D.D.D.D.D.D.D.D.D.D.D.D.D.D.D.D.D.D.D.D.D.D.D.D.D.D.D.D.D.D.D.D.D.D.D.D.D.D.D.D.D.D.D.D.D.D.D.D.D.D.D.D.D.D.D.D.D.",
"D.D.D.D.D.D.D.D.D.D.D.D.D.D.D.D.D.D.D.D.D.D.D.j                 9 0 9 0 0 0 0 D.D.D.D.D.D.D.D.D.D.D.D.D.D.D.D.D.D.D.",
"D.D.D.D.D.D.D.D.D.D.D.D.D.D.D.D.D.D.D.D.      *.l.l.l.l.l.l.l.0 ....$.b 7 ..L 0 D.D.D.D.D.D.D.D.D.D.D.D.D.D.D.D.D.D.",
"D.D.D.D.D.D.D.D.D.D.D.D.D.D.D.D.D.D.  X l.l.l.l.j.:.<.<.5.f 7 ....&.K z 0 o.L 9 8 D.D.D.D.D.D.D.D.D.D.D.D.D.D.D.D.D.",
"D.D.D.D.D.D.D.D.D.D.D.D.D.: * r.r.i.c.0.<.<.<.<.<.l.5.t D ' o...%...J z 7 o.! 0 ..Z A M D.D.D.D.D.D.D.D.D.D.D.D.D.D.",
"D.D.D.D.D.D.D.D.D.D.D.j @ l.c.>.:.:.:.c.3.<.<.s       w ....o.$.7 ..J z 7 o.! 0 ..I H 0   D.D.D.D.D.D.D.D.D.D.D.D.D.",
"D.D.D.D.D.D.D.D.D.D.  u l.l.<.<.<.<.<.5.l.    $ < < < 8 ....' $.0 ..J z 9 o.! 0 ..I I 0 l.  D.D.D.D.D.D.D.D.D.D.D.D.",
"D.D.D.D.D.D.D.D.D.  c.u.5.<.l.<.<.<.<..   1 < 1 < < 9 o.....' $.0 ..! k 7 ..! 0 o.I K 0 0 l.  D.D.D.D.D.D.D.D.D.D.D.",
"D.D.D.D.D.D.D.D.  l.<.<.<.<.<.l.      < < < < < < < 0 ...... .%.9 o.! k 7 o.! 0 ..R L 0 0 <.l.=   D.D.D.D.D.D.D.D.D.",
"D.D.D.D.D.D.D.  c.3.<.<.<.8.<.  1 < < < < < < < , > 0 ....#.A.L 9 o.( k 8 o.! 0 ..) ! 7 0 <.<.g.l.  D.D.D.D.D.D.D.D.",
"D.D.D.D.D.D.D.  c.l.<.<.<.<.  < < < < < < < < < > 0 ......#.A.L 8 ..( z 9 ..L 0 ..) ! 0 ..0 l.l.l.  D.D.D.D.D.D.D.D.",
"D.D.D.D.D.S.  c.<.<.y.9.g O < < < < < < < < < < > 0 ......#.A.L 0 ..( k 7 ..L 0 ..) ! 0 ..8 <.<.<.l.  D.D.D.D.D.D.D.",
"D.D.D.D.% ; a.5.<.<.5.h   < < < < < < < < < < < > 0 ......#.A.L 0 ..( z 8 X.J 0 ..( ! 0 ..0 <.<.:.6.a.O D.D.D.D.D.D.",
"D.D.D.D.O - l.<.<.<.  # < < < < < < < < < < < 5 0 ......$.{ J ! 0 ..! k 7 o.! 0 ..) ! 0 ..J 0 -.<.<.c.  D.D.D.D.D.D.",
"D.D.D.X a.v.<.l.j.<.  # < < < < < < < < < < < 6 0 ....o.$.{ H ! 0 ..I z 7 o.! 0 ..) _ 0 ..L 0 t.l.l.3.l.  D.D.D.D.D.",
"D.D.D.  a.x.<.2.<.  < < < < < < < < < < < < < 6 9 ......$.{ H ! 0 ..H z 9 o.! 0 ..) ! 0 ..( 0 =.<.3.5.l.  D.D.D.D.D.",
"D.D.D.  p.x.<.3.7.  < < < < < < < < < < < < < 6 9 ......$.{ L _ 9 ..L z 7 o.( 0 ..) ! 0 ..! 0 @   <.<.c.  D.D.D.D.D.",
"D.D.D.  p.x.<.<.<.  < < < < < < < < < < < < < 5 0 ......$.{ J J 9 ..L z 7 ..L 0 ..) ! 0 ..! 0 @   5.<.l.  D.D.D.D.D.",
"D.D.  l.4.;.;.>.  < < < < < < < < < 1 < < < < 5 7 ..X.7 7 7 7 7 0 O.I x 7 ..L 0 ..I L 0 ..L 0 @   ;.,.,.c.  3 D.D.D.",
"D.D.  c.w.e.e.e.  < < < < < < < < < < < < < < 5 9 ..7 .._ _ ( ( S S S l 0 n v 0 ..I L 0 ..L 0 @   q.q.e.l.  3 D.D.D.",
"D.D.  l.5.<.<.<.  < > < < < < < < < < < < < < 6 9 o.0 ..J J P V.J H H | ......0 8 8 7 8 ..L 0 @   <.<.5.c.  3 D.D.D.",
"D.D.  l.5.<.<.<.  < < < < < < < < < < < < < < 5 0 ....8 0 0 7 I J J M.Y U J P ...... .0 0 0 0 @   3.<.<.c.  3 D.D.D.",
"D.D.  l.5.<.5.<.  < < < < < < < < < < < 1 < < 5 0 ....o.7 0 0 0 0 0 K U J I N.J J H U ......0 w 0 5.<.<.c.+ 3 D.D.D.",
"D.D.  l.l.l.l.l.  < < < < < < < < < < < < < < 5 0 ......$.{ I 0 7 0 0 0 0 9 J L J B.n.L K I ..w q l.c.c.l.  3 D.D.D.",
"D.D.  l.5.<.<.5.  < < < < < < < < < < < < < < 5 0 ......$.{ J ! 0 ..0 0 0 0 0 0 8 L J J J M.L w 0 <.<.5.c.  3 D.D.D.",
"D.D.  l.5.<.<.2.  > < < < < < < < < < < < < < 5 0 ......$.{ I ! 0 ..L x 0 ..0 0 7 8 0 0 0 J I e 8 <.<.<.c.+ 3 D.D.D.",
"D.D.  l.<.<.<.<.  < < < < < < < < < < < < < 1 5 9 ......$.+._ J 0 ..J x 8 ..J 0 ..n b 0 m 0 0 . X <.<.<.c.  3 D.D.D.",
"D.D.  l.c.k.l.j.  < < < < < < < < > 1 < < < < 5 0 ......$.+.( J 0 ..J x 8 ..L 0 ..L J 0 o.I 0 . o l.l.l.k.+ 3 D.D.D.",
"D.D.  l.<.<.<.<.  < < < < < < < < < < < < < < 5 0 ......A.{ W p 0 ..J x 8 o.! 0 ..I L 0 ..L 0 .   <.<.<.c.  3 D.D.D.",
"D.D.  l.<.<.<.<.  < < > < < < < < < < < < < < 5 9 ..o...$.G 2 M.i ..J x 8 o.( 0 ..I J 0 ..L 0 . X <.<.<.c.+ 3 D.D.D.",
"D.D.  l.5.<.<.<.  < < < < < < < < < < < < < < 5 0 ......$.G y V.p ..L x 0 o.! 0 ..I L 0 ..! 0 .   <.<.<.c.  3 D.D.D.",
"D.D.  l.1.2.2.<.  < < < < < < < < < < < < < < 6 8 ......$.G y V.p X.I x 8 o.! 0 ..R I 0 ..( 0 @   <.<.<.l.+ 3 D.D.D.",
"D.D.  l.l.l.l.l.  < < < < < < < < < < < < < < 5 9 ......$.{ W p 0 ..! c 8 o.! 0 ..) ! 0 ..( 0 .   l.l.l.l.  3 D.D.D.",
"D.D.  l.5.<.<.5.  < < < < < < < < < < < < < < 5 9 ..o...$.} E p 0 ..! c 8 .._ 0 ..) ! 0 ..) 0 .   <.<.<.c.+ 3 D.D.D.",
"D.D.  l.5.<.<.<.  < < < < < < < < < < < < < < 5 9 o.....$.+.) p 0 ..( k 8 ..H 0 ..) ( 0 ..R 0 .   5.5.<.c.  3 D.D.D.",
"D.D.  l.5.5.<.<.  < < < < < < < < < < < < < < 5 9 o.' ..$.+.) p 0 ..( b 8 ..L 0 ..Q L 0 ..L 0 @   2.<.<.c.  3 D.D.D.",
"D.D.  l.k.l.l.c.  < < < < < < < < < < < < < < 6 0 ......$.{ W p 0 .._ c 8 ..! 8 ..I J 0 ..( 0 .   l.c.l.l.  3 D.D.D.",
"D.D.  l.2.<.<.5.  < < < < < < < < < < < < < < 6 9 o.o...$.{ W p 0 ..( c 8 o.! 0 ..I J 0 ..( 0 .   5.<.<.c.+ 3 D.D.D.",
"D.D.  l.5.<.<.<.  < > < < < < < < < 1 < < < < 6 9 ......$.G y C.p ..) x 0 o.! 0 ..R I 0 ..( 0 .   7.<.3.c.+ 3 D.D.D.",
"D.D.  l.5.<.<.<.  < < < < < < < < < < < < < < 6 0 ......$.G y M.p X.J x 8 o.! 0 ..) ( 0 ..( 0 .   5.<.5.c.  3 D.D.D.",
"D.D.  l.<.<.<.,.  < > < < < < < < < < < < < < 6 0 o.....$.T y M.a X.J x 8 ..! 0 ..) ! 0 ..! 0 .   <.3.3.l.  3 D.D.D.",
"D.D.  l.s.g.g.g.  < < < < < < < < < < < < < < 5 9 ......$.{ I d w ..J x 8 ..H 8 .._ / 0 ..L 0 . + s.s.f.c.+ 3 D.D.D.",
"D.D.  l.5.<.2.5.  < < < < < < < < < < < < < 1 5 0 ......$.{ J ! 0 ..! c 8 ..L 0 ..I K 0 ..L 0 .   5.<.5.c.  3 D.D.D.",
"D.D.  l.5.<.<.<.  < < < < < < < < < < < < < < 5 9 ......$.+._ ! 9 ..! c 8 ..J 0 ..I J 0 ..0 0 0 0 <.<.<.c.  3 D.D.D.",
"D.D.  l.5.5.<.5.  > < < < < < < < < < < < < < 5 0 ......$.+.! R 0 ..( x 0 ..J 0 ..w 0 0 0 ....r 0 0 5.5.c.  3 D.D.D.",
"D.D.  l.j.l.l.l.  < < < < < < < 1 < < < < < < 5 9 o.....$.+._ L 0 ..H x 9 o.0 0 0  .......L L L I 8 l.l.c.+ 3 D.D.D.",
"D.D.  l.5.<.<.<.  > < < < < < < > < < < < < < 5 9 ......$.+._ L 0 ..0 8 0 8 ......R J L L C.L L I 9 5.<.c.  3 D.D.D.",
"D.D.  l.5.<.8.2.  < < < < < < < < < < < < < < 5 0 ......$.{ I 0 0 0 ........H J J N.M.L L L 0 9 9 8.<.<.c.+ 3 D.D.D.",
"D.D.  l.5.<.<.<.  < < < < < < < < < < < < < < 5 9 ....7 0 0 9 ......K A L K m.L L I K 0 0 0 0 @   5.5.3.c.  3 D.D.D.",
"D.D.  l.d.f.g.g.  < < < < < < < < < < < < < < 5 7 ..7 ../ _ Q b.H L Y N x x z 0 0 0 9 8 ` Z 0 @ o f.f.f.l.  3 D.D.D.",
"D.D.  l.5.<.<.<.  < < < < < < < < < < < < < < 5 9 ..0 ..L L L J 9 9 9 0 0 0 0 0 ..L L 0 ..( 0 @   <.<.<.c.  3 D.D.D.",
"D.D.  l.<.<.<.<.  > < < < < < < < < < < < < < 5 9 ....0 9 0 0 0 0 0 0 0 7  .! 0 ..) ! 0 ..) 0 @ X 5.<.<.c.+ 3 D.D.D.",
"D.D.  l.<.<.<.2.  < < < < < < < < < < < < < < 5 9 o...o.8 9 0 0 0 o.K x 8 o.! 0 ..) ! 0 ..H 9 @ X <.<.<.c.  3 D.D.D.",
"D.D.  z.1.<.<.<.  < < < < < < < < < < < < < < 6 0 ......A.+.! H 0 .._ c 8 o.! 0 ..) ! 0 o.J 0 @   <.<.<.c.  3 D.D.D.",
"D.D.D.                                        & 9 ......$.+.! ! 9 X.! c 8 ..L 0 ..) ! 0 ..J 0 @           D.D.D.D.D.",
"D.D.D.D.D.D.D.D.D.D.D.D.D.D.D.D.D.D.D.D.D.D.D.] 0 ......$.{ H ! 0 ..( c 8 ..L 0 ..I L 0 X.0 D.D.D.D.D.D.D.D.D.D.D.D.",
"D.D.D.D.D.D.D.D.D.D.D.D.D.D.D.D.D.D.D.D.D.D.D.] 9 o.....$.{ H _ 9 ..( c 0 ..K 0 ..B V F F D.D.D.D.D.D.D.D.D.D.D.D.D.",
"D.D.D.D.D.D.D.D.D.D.D.D.D.D.D.D.D.D.D.D.D.D.D.] 0 ......$.{ A ! 0 ..L x 8 ..J 9 w D.D.D.D.D.D.D.D.D.D.D.D.D.D.D.D.D.",
"D.D.D.D.D.D.D.D.D.D.D.D.D.D.D.D.D.D.D.D.D.D.D.] 9 ..o...$.{ L L 0 ..H x 0 ..0 D.D.D.D.D.D.D.D.D.D.D.D.D.D.D.D.D.D.D.",
"D.D.D.D.D.D.D.D.D.D.D.D.D.D.D.D.D.D.D.D.D.D.D.] 0 ......$.{ L L 0 ..J x 0 9 D.D.D.D.D.D.D.D.D.D.D.D.D.D.D.D.D.D.D.D.",
"D.D.D.D.D.D.D.D.D.D.D.D.D.D.D.D.D.D.D.D.D.D.D.] 0 o.....$.{ J U 0 ..0 Z.D.D.D.D.D.D.D.D.D.D.D.D.D.D.D.D.D.D.D.D.D.D.",
"D.D.D.D.D.D.D.D.D.D.D.D.D.D.D.D.D.D.D.D.D.D.D.] 9 ......$.{ J J 8 0 D.D.D.D.D.D.D.D.D.D.D.D.D.D.D.D.D.D.D.D.D.D.D.D.",
"D.D.D.D.D.D.D.D.D.D.D.D.D.D.D.D.D.D.D.D.D.D.D.[ 9 ......$.{ I w D.D.D.D.D.D.D.D.D.D.D.D.D.D.D.D.D.D.D.D.D.D.D.D.D.D.",
"D.D.D.D.D.D.D.D.D.D.D.D.D.D.D.D.D.D.D.D.D.D.D.D.D.4 4 4 4 4 4 D.D.D.D.D.D.D.D.D.D.D.D.D.D.D.D.D.D.D.D.D.D.D.D.D.D.D."
};
