/* XPM */
static char *result[] = {
/* columns rows colors chars-per-pixel */
"64 64 14 1 ",
"  c black",
". c #755F22",
"X c #5C6262",
"o c #626868",
"O c #676E6E",
"+ c #6E7575",
"@ c red",
"# c #BBAA0F",
"$ c #FFB512",
"% c #FFE814",
"& c #B08458",
"* c #D49F6A",
"= c #F0B478",
"- c None",
/* pixels */
"----------------------------------------------------------------",
"----------------------------------------------------------------",
"----------------------------------------------------------------",
"----------------------------------------------------------------",
"----------------------------------------------------------------",
"----------------------------------------------------------------",
"----------------------------------------------------------------",
"----------------------------------------------------------------",
"----------------------------------------------------------------",
"-------------------------         ------------------------------",
"------------------------  +++++++    ---------------------------",
"------------------------ +++++++++++ ---------------------------",
"----------------------   +++++++++++  --------------------------",
"----------------------  +++++++++++++ --------------------------",
"----------------------  +++++++++++++ --------------------------",
"---------------------   +++++++++++++ --------------------------",
"--------------------- o++++             ------------------------",
"--------------------  o+++            --------------------------",
"-----------------    ++++  ++ ******* --------------------------",
"----------------- +++++++  ++ *  ** * ---------     ------------",
"------------------         ++ =====** -------  @@@@@  ----------",
"------------------------   ++  ====== ------ @@@@@@@@@ ---------",
"------------------         +++   ==== ------ @@     @@ ---------",
"----------------  @@@@@@   ++++   ==  ------ @@ %%#    ---------",
"---------------  @@@@@@@@   +++++ == +  ---- @@ %%%%%% ---------",
"--------------- @@@@@@@@@            + @  -- @@ %%%%%% ---------",
"-------------   @@@@@@@@   ++  +++++ + @     @@ %%%%%% ---------",
"-------------    @@@@@@@  ++++ +++++ ++ @@@  @@ %%%%%% ---------",
"-------------  =  @@@   - ++++ ++++ +++ @@@  @@ %%%%%% ---------",
"------------   ==  @  --  ++++ ++++ +++ @@@  @@ %%%%%% ---------",
"------------ &====   --- +++++ ++++ +++ @@@  @@ %%%%%% ---------",
"------------ &====  ---- +++++ ++++ +++      @@ %%%%%% ---------",
"------------ &====    -- ++++ +++++ +++ --   @@ %%%%%% ---------",
"----------   &====  . -- ++++ +++++ +++ ---- @@ %%%%%% ---------",
"--------  .  &===   .                           %%%%%% ---------",
"-------- ... &=== ... XOOOOOOOOOOOOOOOOOOOOOOO  %%%%%% ---------",
"--------- .. &=== ... XOOOOOOOOOOOOOOOOOOOOOO   %%%%%% ---------",
"---------           . XOOOOOOOOOOOOOOOOOOOOO  @ %%#    ---------",
"------------------- .                        @@     @@ ---------",
"------------------- . -- @@@@@@@@@@@@ ------ @@@@@@@@@ ---------",
"-------------------- -   @@@@@@@@@@@@  ------  @@@@@  ----------",
"---------------------   @@@@@@@@@@@     -------     ------------",
"----------------------              ++ -------------------------",
"----------------------  ++++ -   +++++ -------------------------",
"----------------------  ++++ --  +++++  ------------------------",
"----------------------  ++++ --   +++++ ------------------------",
"---------------------   ++++ ----  +++++  ----------------------",
"--------------------- o+++++ ----- +++++   ---------------------",
"--------------------     ++  -----  +++++o ---------------------",
"-------------------- $$$  + ------- +++++o ---------------------",
"-------------------  $$$$   -------  ++++++ --------------------",
"------------------- $$$$$$  -------- ++++++     ----------------",
"------------------  $$$$$$ ---------  ++    $$$  ---------------",
"-----------------  $$$$$$  ----------    $$$$$$$ ---------------",
"----------------  $$$$$$$ ----------- $$$$$$$$$$ ---------------",
"-------------    $$$$$$$$   --------- $$$$$$$$$$ ---------------",
"-------------  $$$$$$$$$$$$  -------- $$$$$$$$   ---------------",
"-------------    $$$$$$$$$$$ -------- $$$$$$$  -----------------",
"----------------       $$$$$ -------- $$$$$$$ ------------------",
"----------------------       --------         ------------------",
"----------------------------------------------------------------",
"----------------------------------------------------------------",
"----------------------------------------------------------------",
"----------------------------------------------------------------"
};
