/* XPM */
static char *result[] = {
/* columns rows colors chars-per-pixel */
"63 63 7 1 ",
"  c #6E5967",
". c #926475",
"X c #AD707B",
"o c #B77F83",
"O c #C39490",
"+ c #D1B1A5",
"@ c #DCCABE",
/* pixels */
"                                                               ",
"     .XXXXoOOOOOOOOOOOOOOOOOOX       .XXXXoOOOOOOOOoXXXX.      ",
"     XXXXXOOOOOOOOOOOOOOOOOOOO       XXXXXOOOOOOOOOOXXXXX      ",
"    .XXXXXOOOOOOOOOXOXXXXXOO        .XXXXXOOOOOOOOOOXXXXX.     ",
"XXXXXXXXXXOOOOOOOOOO+O+++OOOOo .XXXXXXXXXXOOOOOOOOOOXXXXXXXXX. ",
"XXXXXXXXXXOOOOOOOOOOOOOOOOOOOO XXXXXXXXXXXOOOOOOOOOOXXXXXXXXXX ",
"XXXXXXXXXXOOOOOOOOOOOOOOOOOOOO XXXXXXXXXXXOOOOOOOOOOXXXXXXXXXX ",
"XXXXXXXXXXoOOOOOOOOOOOOOOOOOOX .XXXXXXXXXXoOOOOOOOOoXXXXXXXXX. ",
"                                                               ",
"XXXXXXXXXoOOOX XOOO+O+++++OOOOOXXXXXXXXXXoOOOX XOOOOoXXXXXXXXXX",
"XXXXXXXXoOOOOO OOOOOOOOOOOOOOOOXXXXXXXXXoOOOOO OOOOOOoXXXXXXXXX",
"OOOOOOOOOOOOOO OOOOOOOOOOOOOOOOOOOOOOOOOOOOOOO OOOOOOOOOOOOOOOO",
"OOOOOOXXOXO    OOOOOOOOOOOOOOOOOOOOOOOXXOXOO   OOOOOOOOOOOOOOOO",
"OOOOO+O++OOOOo OOOOOOOOOOOOOOOOOOOOOO+O++OOOOo OOOOOOOOOOOOOOOO",
"OOOOOOOOOOOOOO OOOOOOOOOOOOOOOOOOOOOOOOOOOOOOO OOOOOOOOOOOOOOOO",
"OOOOOOOOOOOOOX XOOOOOOOOOOOOOOOOOOOOOOOOOOOOOX XOOOOOOOOOOOOOOO",
"                                                               ",
"OOO+O++@@@+O++OOOOOOOOOOOOOOOX XOOO+O++@@@+O++OOOOOOOOOOOOOOOX ",
"OOOOOOOOOOOOOOOOOOOOOOOOOOOOOO OOOOOOOOOOOOOOOOOOOOOOOOOOOOOOO ",
"OOOOOOOOOOOOOOOOOOOOOOOOOOOOOO OOOOOOOOOOOOOOOOOOOOOOOOOOOOOOO ",
"OOOOOOOOOOOOOOOOOOOOOOOOOOOOOo OOOOOOOOOOOOOOOOOOOOOOOOOOOOOOo ",
"OOOOOOOOOOOOOOOOOOOOOXXOXO     OOOOOOOOOOOOOOOOOOOOOOXXOXO     ",
"OOOOOOOOOOOOOOOOOOOOOOO+O++OOO OOOOOOOOOOOOOOOOOOOOOOOO+O++OOO ",
"OOOOOOOOOOOOOOOOOOOOOOOOOOOOOX XOOOOOOOOOOOOOOOOOOOOOOOOOOOOOX ",
"                                                               ",
"OOOOOOOOOOOOOX XOOO+O+++@@@++OOOOOOOOOOOOOOOOX XOOO+O+++@@@++OO",
"OOOOOOOOOOOOOO OOOOOOOOOOOOOOOOOOOOOOOOOOOOOOO OOOOOOOOOOOOOOOO",
"XXXXXXXXoOOOOO OOOOOOOOOOOOOOOOOOOOXXXOOXOO    OOOOOOOOOOOOOOOO",
"XXXXXXXXXoOOOO OOOOOOOOOOOOOOOOOOOOO+OOO++O+Oo OOOOOOOOOOOOOOOO",
"XXXXXXXXXXOOOO OOOOOOOOOOOOOOOOOOOOOOOOOOOOOOO OOOOOOOOOOOOOOOO",
"  .XXXXXXXOOOO OOOOOOOOOOOOOOOOOOOOOOOOOOOOOOO OOOOOOOOOOOOOOOO",
"   .XXXXXXoOOX XOOOOOOOOOOOOOOOOOOOOOOOOOOOOOX XOOOOOOOOOOOOOOO",
"                                                               ",
"OOOO+++++OO+OOOOOOOOOOOOOOOOOX XOOOO+++++OO+OOOOOOOoXXXX.      ",
"OOOOOOOOOOOOOOOOOOOOOOOOOOOOOO OOOOOOOOOOOOOOOOOOOOOXXXXX      ",
"OOOOOOOOOOOOOOOOOOOXOXXXXXOO   OOOOOOOOOOOOOOOOOOOOOXXXXX.     ",
"OOOOOOOOOOOOOOOOOOOO+O+++OOOOo OOOOOOOOOOOOOOOOOOOOOXXXXXXXXX. ",
"OOOOOOOOOOOOOOOOOOOOOOOOOOOOOO OOOOOOOOOOOOOOOOOOOOOXXXXXXXXXX ",
"OOOOOOOOOOOOOOOOOOOOOOOOOOOOOO OOOOOOOOOOOOOOOOOOOOOXXXXXXXXXX ",
"OOOOOOOOOOOOOOOOOOOOOOOOOOOOOX XOOOOOOOOOOOOOOOOOOOoXXXXXXXXX. ",
"                                                               ",
"++OOOOOOOOOOOX XOOO+O+++++OOOOO+++OOOOOOOOOOOX XOOOOoXXXXXXXXXX",
"OOOOOOOOOOOOOO OOOOOOOOOOOOOOOOOOOOOOOOOOOOOOO OOOOOOoXXXXXXXXX",
"OOOOOOXXOXOO   OOOOOOOOOOOOOOOOOOOOOOOXXOXOO   OOOOOOOOOOOOOOOO",
"OOOOO+O++OOOOo OOOOOOOOOOOOOOOOOOOOOO+O++OOOOo OOOOOOOOOOOOOOOO",
"OOOOOOOOOOOOOO OOOOOOOOOOOOOOOOOOOOOOOOOOOOOOO OOOOOOOOOOOOOOOO",
"OOOOOOOOOOOOOO OOOOOOOOOOOOOOOOOOOOOOOOOOOOOOO OOOOOOOOOOOOOOOO",
"OOOOOOOOOOOOOX XOOOOOOOOOOOOOOOOOOOOOOOOOOOOOX XOOOOOOOOOOOOOOO",
"                                                               ",
"OOO+O++@@@+O++OOOOOOOOOOOOOOOX XOOO+O++@@@+O++OOOOOOOOOOOOOOOX ",
"OOOOOOOOOOOOOOOOOOOOOOOOOOOOOO OOOOOOOOOOOOOOOOOOOOOOOOOOOOOOO ",
"OOOOOOOOOOOOOOOOOOOOOOOOOOOOOO OOOOOOOOOOOOOOOOOOOOOOOOOOOOOOO ",
"OOOOOOOOOOOOOOOOOOOOOOOOOOOOOo OOOOOOOOOOOOOOOOOOOOOOOOOOOOOOo ",
"OOOOOOOOOOOOOOOOOOOOOXXOXO     OOOOOOOOOOOOOOOOOOOOOOXXOXO     ",
"OOOOOOOOOOOOOOOOOOOOOOO+O++OOO OOOOOOOOOOOOOOOOOOOOOOOO+O++OOO ",
"OOOOOOOOOOOOOOOOOOOOOOOOOOOOOX XOOOOOOOOOOOOOOOOOOOOOOOOOOOOOX ",
"                                                               ",
"OOOOOOOOOOOOOX XOOO+O+++@@@++OOOOOOOOOOOOOOOOX XOOO+O+++@@@++OO",
"OOOOOOOOOOOOOO OOOOOOOOOOOOOOOOOOOOOOOOOOOOOOO OOOOOOOOOOOOOOOO",
"XXXXXXXXoOOOOO OOOOOOoXXXXXXXXXOOOOXXXOOXOO    OOOOOOoXXXXXXXXX",
"XXXXXXXXXoOOOO OOOOOoXXXXXXXXXXOOOOO+OOO++O+Oo OOOOOoXXXXXXXXXX",
"XXXXXXXXXXOOOO OOOOOXXXXXXXXXXXOOOOOOOOOOOOOOO OOOOOXXXXXXXXXXX",
"  .XXXXXXXOOOO OOOOOXXXXXXX.   OOOOOOOOOOOOOOO OOOOOXXXXXXX.   "
};
